<?xml version="1.0" encoding="utf-8"?>
<!-- Generator: Adobe Illustrator 27.5.0, SVG Export Plug-In . SVG Version: 6.00 Build 0)  -->
<svg version="1.1" id="_x31_" xmlns="http://www.w3.org/2000/svg" xmlns:xlink="http://www.w3.org/1999/xlink" x="0px" y="0px"
	 viewBox="0 0 800 800" style="enable-background:new 0 0 800 800;" xml:space="preserve">
<style type="text/css">
	.st0{opacity:6.000000e-02;}
</style>
<path class="st0" d="M635.6,141.2c-22.5,31.9-66.2,39.4-98.1,17.5S498.1,92.5,520,60.6c22.5-31.9,66.2-39.4,98.1-17.5
	S658.1,109.4,635.6,141.2z M794.4,219.4l-82.5,118.8c-9.4,14.4-28.8,17.5-43.1,8.1L550,263.8L423.1,451.9l108.1,75.6
	c9.4,6.2,16.9,16.9,18.8,28.1l30.6,173.1c3.8,23.8-12.5,46.9-36.2,51.2c-23.8,3.8-46.9-12.5-51.2-36.3l-27.5-155.6l-136.2-96.9
	c0,0-71.9,103.8-76.9,110c-5,6.2-9.4,15-17.5,19.4c-10.6,6.2-23.1,6.9-33.7,4.4l-170-45.6c-23.1-6.2-36.9-30-30.6-53.8
	c6.2-23.1,30-36.9,53.7-30.6l139.4,36.9l222.5-323.1h-85.6l-73.1,105c-9.4,14.4-28.8,17.5-43.1,8.1c-14.4-9.4-17.5-28.8-8.1-43.1
	l82.5-118.1c6.2-9.4,16.9-14.4,27.5-13.1h142.5c21.2,0,42.5,6.2,60.6,19.4l45.6,32.5l112.5,79.4l66.2-93.7
	c9.4-14.4,28.8-17.5,43.1-8.1S804.4,206.2,794.4,219.4z"/>
</svg>
