<?xml version="1.0" encoding="utf-8"?>
<!-- Generator: Adobe Illustrator 27.5.0, SVG Export Plug-In . SVG Version: 6.00 Build 0)  -->
<svg version="1.1" id="Layer_1" xmlns="http://www.w3.org/2000/svg" xmlns:xlink="http://www.w3.org/1999/xlink" x="0px" y="0px"
	 viewBox="0 0 800 800" style="enable-background:new 0 0 800 800;" xml:space="preserve">
<style type="text/css">
	.st0{opacity:6.000000e-02;}
</style>
<g class="st0">
	<g>
		<g>
			<path d="M196.1,417.2c-5.2-5.2-13.6-5.2-18.9,0c-39.5,39.5-40.3,83-2.7,122.7l-84.2,84.2l-13.9-13.7
				c-10.4-10.4-27.3-10.4-37.7-0.1l-31,31.1c-10.4,10.4-10.4,27.3,0,37.7l113.1,113.1c5.2,5.2,12,7.8,18.9,7.8
				c6.8,0,13.7-2.6,18.9-7.8l31-31c5.4-5.4,8.1-13,7.2-20.9c-0.8-7.2-4.3-14.1-10.2-20l-10.8-10.7l84.1-84.1
				c40.3,38.3,82.6,37.4,122.7-2.7c5.2-5.2,5.2-13.6,0-18.9L196.1,417.2z M276,603.8l-6.7-6.6c-5.2-5.1-13.6-5.1-18.8,0.1L157,690.8
				l-21-20.9c-5.2-5.2-13.6-5.2-18.9,0c-5.2,5.2-5.2,13.7,0,18.9l50.7,50.5c2,2,2.5,3.5,2.9,3.1l-31,31L26.7,660.2l31-30.9L81,652.4
				c5.2,5.2,13.6,5.1,18.8,0l93.5-93.5l23.9,24c5.2,5.2,13.6,5.2,18.9,0c5.2-5.2,5.2-13.7,0-18.9l-40-40.1
				c-15-15-22.6-29.7-22.7-43.8c0-11,4.6-22.4,13.7-34.1L354,612.8C327.5,633.9,303.1,630.9,276,603.8z"/>
			<path d="M449.4,276.1L673.4,52.2l71.5-15.9L477.2,303.9c-5.2,5.2-5.2,13.6,0,18.9c2.6,2.6,6,3.9,9.4,3.9c3.4,0,6.8-1.3,9.4-3.9
				L763.7,55.1l-15.9,71.5L523.9,350.6c-5.2,5.2-5.2,13.6,0,18.9c2.6,2.6,6,3.9,9.4,3.9c3.4,0,6.8-1.3,9.4-3.9l226.7-226.7
				c1.8-1.8,3-4.1,3.6-6.5l26.7-120c0.2-0.8,0.2-1.6,0.2-2.5c0-0.2,0.1-0.4,0.1-0.6c0-1.5-0.3-3-0.9-4.4c-0.1-0.3-0.3-0.6-0.4-0.9
				c-0.7-1.4-1.5-2.8-2.6-3.9c-1.1-1.1-2.5-2-3.9-2.6c-0.3-0.1-0.6-0.3-0.9-0.4c-1.4-0.5-2.9-0.8-4.4-0.9c-0.2,0-0.4,0.1-0.7,0.1
				c-0.8,0-1.6,0.1-2.4,0.2L663.8,27c-2.5,0.5-4.7,1.8-6.5,3.6L430.6,257.2c-5.2,5.2-5.2,13.6,0,18.9
				C435.8,281.3,444.2,281.3,449.4,276.1z"/>
			<path d="M792.2,641.3l-31-31c-9.4-9.4-26.4-11.4-40.8,3l-10.7,10.8L625.5,540c38.3-40.2,37.4-82.6-2.7-122.7
				c-5.2-5.2-13.6-5.2-18.9,0L417.2,603.9c-5.2,5.2-5.2,13.6,0,18.9c39.5,39.5,83,40.3,122.7,2.7l84.2,84.2l-13.8,13.9
				c-10.4,10.4-10.4,27.3-0.1,37.7l31,31c5.2,5.2,12,7.8,18.9,7.8c6.8,0,13.7-2.6,18.9-7.8l113.1-113.1
				C802.6,668.7,802.6,651.7,792.2,641.3z M660.2,773.3l-30.9-31l23.1-23.3c5.2-5.2,5.1-13.6,0-18.8l-93.5-93.5l24-23.9
				c5.2-5.2,5.2-13.6,0-18.9c-5.2-5.2-13.7-5.2-18.9,0l-40.1,40c-15,15-29.7,22.6-43.8,22.7H480c-11,0-22.4-4.6-33.9-13.8L612.8,446
				c21.1,26.4,18.1,50.9-9,77.9l-6.6,6.7c-5.1,5.2-5.1,13.6,0.1,18.8l93.5,93.5l-20.9,21c-5.2,5.2-5.2,13.7,0,18.9
				c5.2,5.2,13.7,5.2,18.9,0l50.5-50.7c2-2,3.5-2.5,3.2-2.9l31,31L660.2,773.3z"/>
			<path d="M440,546.7c3.4,0,6.8-1.3,9.4-3.9c5.2-5.2,5.2-13.6,0-18.9L52.2,126.6L36.3,55.1l441,441c2.6,2.6,6,3.9,9.4,3.9
				c3.4,0,6.8-1.3,9.4-3.9c5.2-5.2,5.2-13.6,0-18.9l-441-441l71.5,15.9l397.3,397.3c5.2,5.2,13.6,5.2,18.9,0
				c5.2-5.2,5.2-13.6,0-18.9l-400-400c-1.8-1.8-4.1-3-6.5-3.6L16.2,0.3c-0.8-0.2-1.6-0.2-2.4-0.2c-0.2,0-0.4-0.1-0.7-0.1
				c-1.5,0-3,0.3-4.4,0.9C8.4,1,8.1,1.1,7.8,1.3C6.4,1.9,5,2.7,3.9,3.9C2.7,5,1.9,6.4,1.3,7.8C1.1,8.1,1,8.4,0.9,8.8
				C0.3,10.2,0,11.6,0,13.2c0,0.2,0.1,0.4,0.1,0.6c0,0.8,0,1.6,0.2,2.5l26.7,120c0.6,2.5,1.8,4.7,3.6,6.5L287.8,400l-30.6,30.6
				c-5.2,5.2-5.2,13.6,0,18.9c2.6,2.6,6,3.9,9.4,3.9s6.8-1.3,9.4-3.9l30.6-30.6l27.8,27.8l-30.6,30.6c-5.2,5.2-5.2,13.6,0,18.9
				c2.6,2.6,6,3.9,9.4,3.9c3.4,0,6.8-1.3,9.4-3.9l30.6-30.6l27.8,27.8l-30.6,30.6c-5.2,5.2-5.2,13.6,0,18.9c2.6,2.6,6,3.9,9.4,3.9
				s6.8-1.3,9.4-3.9l30.6-30.6l30.6,30.6C433.2,545.4,436.6,546.7,440,546.7z"/>
		</g>
	</g>
</g>
</svg>
